<svg width="1024" height="1024" viewBox="0 0 1024 1024" fill="none" xmlns="http://www.w3.org/2000/svg">
<rect width="1024" height="1024" fill="url(#paint0_linear_97_2992)"/>
<path d="M77.4482 209.296L425.285 160.381V503.87H77.4482V209.296Z" fill="white"/>
<path d="M472.022 153.859L957.907 85.379V501.696H472.022V153.859Z" fill="white"/>
<path d="M76.3638 547.902L424.2 549.524V893.012L76.3638 845.193V547.902Z" fill="white"/>
<path d="M470.938 548.437L958.996 550.398V965.84L470.938 898.447V548.437Z" fill="white"/>
<path d="M146.375 398.985C157.245 401.34 166.756 402.517 174.909 402.517H177.898C182.065 402.155 184.873 400.524 186.322 397.626C187.953 394.727 188.768 390.742 188.768 385.669V239.741L235.237 235.664L262.411 249.252V407.68C262.411 443.732 247.103 463.117 216.486 465.834C210.87 466.378 205.526 466.65 200.453 466.65C195.924 466.65 191.666 466.469 187.681 466.106C183.695 465.744 180.163 465.291 177.083 464.747L149.636 451.16L146.375 398.985ZM191.485 242.186V385.669C191.485 391.647 190.489 396.358 188.496 399.8C186.503 403.061 183.061 404.872 178.17 405.235H174.909C171.285 405.235 167.028 404.963 162.137 404.42C157.245 403.876 152.988 403.242 149.364 402.517L152.354 448.714C154.89 449.077 157.879 449.439 161.321 449.801C164.763 450.164 168.659 450.345 173.007 450.345C178.079 450.345 183.423 450.073 189.04 449.53C218.026 447.174 232.519 428.696 232.519 394.093V238.654L191.485 242.186ZM285.017 451.16V397.898L333.932 393.55L361.107 407.137V460.671L312.192 464.747L285.017 451.16ZM287.735 400.343V448.171L331.214 444.638V396.539L287.735 400.343Z" fill="url(#paint1_linear_97_2992)"/>
<path d="M319.48 780.246C314.045 792.928 305.258 803.617 293.12 812.312C281.163 821.008 266.398 826.081 248.825 827.53C247.195 827.711 245.564 827.802 243.934 827.802C242.303 827.802 240.673 827.802 239.042 827.802C225.455 827.802 212.502 825.447 200.182 820.737C188.044 816.026 177.265 808.961 167.845 799.54C158.424 789.939 150.996 777.801 145.561 763.126C140.126 748.452 137.409 731.06 137.409 710.951C137.409 695.552 139.311 681.149 143.115 667.743C146.92 654.156 152.445 642.108 159.692 631.601C167.12 621.093 176.088 612.669 186.595 606.328C197.103 599.987 208.969 596.273 222.194 595.186C223.281 595.005 224.368 594.915 225.455 594.915C226.542 594.915 227.629 594.915 228.716 594.915C241.941 594.915 254.804 597.904 267.304 603.882C279.986 609.861 291.037 618.013 300.457 628.34C310.059 638.666 316.853 650.351 320.838 663.395L288.5 681.602L292.305 681.33L319.48 694.918V780.246ZM208.878 691.113V729.701L250.727 726.169V749.539C248.372 754.249 244.568 758.325 239.314 761.767C234.241 765.028 228.897 766.84 223.281 767.202C222.556 767.384 221.741 767.474 220.835 767.474C220.111 767.474 219.295 767.474 218.39 767.474C206.614 767.474 197.737 762.764 191.758 753.343C185.78 743.923 182.791 728.614 182.791 707.418C182.791 688.215 185.87 672.906 192.03 661.493C198.19 650.079 208.063 643.829 221.65 642.742H224.64C232.067 642.742 238.408 644.916 243.662 649.264C249.097 653.612 252.992 659.953 255.347 668.286L290.403 648.449C287.323 639.753 283.065 631.601 277.63 623.992C272.377 616.201 265.764 609.861 257.793 604.969C249.822 600.078 240.129 597.632 228.716 597.632C227.81 597.632 226.814 597.632 225.727 597.632C224.64 597.632 223.553 597.723 222.466 597.904C205.255 599.353 190.49 605.332 178.171 615.839C165.852 626.166 156.431 639.662 149.909 656.33C143.387 672.816 140.126 691.023 140.126 710.951C140.126 731.604 143.115 749.448 149.094 764.485C155.072 779.522 163.587 791.116 174.638 799.269C185.689 807.421 198.824 811.497 214.042 811.497C215.31 811.497 216.487 811.497 217.574 811.497C218.842 811.497 220.111 811.407 221.379 811.225C238.408 809.776 252.72 804.975 264.315 796.823C276.091 788.489 284.605 778.253 289.859 766.115V684.319L208.878 691.113ZM253.717 672.363C252.992 669.826 252.177 667.471 251.271 665.297C250.365 662.942 249.369 660.859 248.282 659.047C240.129 659.772 233.426 662.67 228.172 667.743C223.1 672.634 219.295 679.337 216.759 687.852L275.456 682.961L253.717 672.363ZM234.694 746.821L213.498 735.951C213.86 743.198 214.585 748.905 215.672 753.072C216.94 757.057 218.752 760.952 221.107 764.757C221.65 764.576 222.285 764.485 223.009 764.485C227.72 764.123 232.43 762.673 237.14 760.137C241.85 757.42 245.474 754.249 248.01 750.626V745.191L234.694 746.821Z" fill="url(#paint2_linear_97_2992)"/>
<path d="M673.401 879.226C671.88 879.443 670.249 879.552 668.51 879.552C666.988 879.552 665.466 879.552 663.945 879.552C652.64 879.552 642.205 877.921 632.639 874.66C623.291 871.617 614.161 868.03 605.247 863.899C581.986 852.377 564.92 836.181 554.05 815.311C543.398 794.223 538.071 769.222 538.071 740.308C538.071 723.351 540.137 706.938 544.267 691.068C548.615 674.98 555.028 660.523 563.507 647.697C571.985 634.653 582.529 624 595.138 615.739C607.965 607.478 622.965 602.587 640.14 601.065C641.879 600.848 643.509 600.739 645.031 600.739C646.553 600.739 648.075 600.739 649.596 600.739C660.466 600.739 670.141 602.152 678.619 604.978C687.098 607.587 695.685 610.63 704.381 614.109C720.033 620.413 733.077 629.761 743.512 642.153C753.947 654.545 761.774 669.11 766.991 685.85C772.209 702.372 774.818 720.09 774.818 739.004C774.818 756.613 772.752 773.461 768.622 789.549C764.491 805.636 758.187 820.202 749.708 833.246C741.447 846.072 730.903 856.507 718.077 864.551C705.468 872.812 690.576 877.704 673.401 879.226ZM640.466 859.66C657.205 858.355 671.771 853.79 684.163 845.964C696.554 837.92 706.772 827.594 714.816 814.984C722.859 802.158 728.838 787.918 732.751 772.266C736.882 756.396 738.947 739.873 738.947 722.699C738.947 707.046 737.099 692.155 733.403 678.024C729.925 663.676 724.49 650.958 717.098 639.87C709.707 628.783 700.359 620.087 689.054 613.783C677.967 607.261 664.814 604 649.596 604C648.075 604 646.553 604 645.031 604C643.727 604 642.205 604.109 640.466 604.326C623.726 605.848 609.16 610.63 596.769 618.674C584.377 626.501 574.051 636.827 565.79 649.653C557.528 662.262 551.333 676.393 547.202 692.046C543.289 707.481 541.332 723.569 541.332 740.308C541.332 756.613 543.18 772.048 546.876 786.614C550.572 800.962 556.115 813.68 563.507 824.767C570.898 835.637 580.247 844.224 591.551 850.529C602.856 856.834 616.008 859.986 631.009 859.986C632.748 859.986 634.379 859.986 635.9 859.986C637.422 859.986 638.944 859.877 640.466 859.66ZM640.466 809.115C639.596 809.115 638.727 809.223 637.857 809.441C637.205 809.441 636.444 809.441 635.574 809.441C622.53 809.441 612.204 803.788 604.595 792.484C597.204 781.179 593.508 762.265 593.508 735.743C593.508 716.829 595.573 701.611 599.704 690.089C603.834 678.567 609.487 670.089 616.661 664.654C623.835 659.001 631.77 655.849 640.466 655.197C641.335 655.197 642.205 655.197 643.074 655.197C643.944 654.98 644.814 654.871 645.683 654.871C658.51 654.871 668.51 660.415 675.684 671.502C682.858 682.372 686.445 701.068 686.445 727.591C686.445 755.852 682.097 776.288 673.401 788.897C664.923 801.288 653.944 808.028 640.466 809.115ZM639.487 805.854C652.314 804.767 662.749 798.245 670.793 786.288C679.054 774.331 683.184 754.765 683.184 727.591C683.184 715.199 682.423 704.655 680.902 695.959C679.38 687.263 677.097 680.198 674.054 674.763C672.967 674.545 671.88 674.437 670.793 674.437C669.706 674.219 668.619 674.111 667.532 674.111C654.705 674.111 645.14 680.85 638.835 694.329C632.531 707.59 629.378 726.83 629.378 752.048C629.378 764.657 630.248 775.418 631.987 784.331C633.726 793.027 636.226 800.201 639.487 805.854ZM794.396 863.247V803.245L822.767 800.962L797.005 788.245V615.413L846.245 610.848L878.855 627.153V799.984L856.028 802.267L881.464 814.984V875.312L827.006 879.552L794.396 863.247ZM800.266 618.348V784.657L842.985 780.744V614.435L800.266 618.348ZM797.657 806.18V859.66L845.593 856.073V802.267L797.657 806.18Z" fill="url(#paint3_linear_97_2992)"/>
<path d="M675.25 444.429L648.837 400.406V462.364L593.074 467.256L560.464 450.951V203.118L616.227 198.226L648.837 214.531V232.14L670.685 196.596L733.622 191.052L766.231 207.357L692.208 323.447L772.753 455.19L707.86 460.734L675.25 444.429ZM727.426 194.965L672.642 199.857L612.966 297.359V201.813L563.725 206.052V447.364L612.966 443.451V373.992L625.358 354.753L676.881 441.168L734.274 435.951L655.685 307.468L727.426 194.965ZM768.071 451.929V388.014L826.768 382.797L859.378 399.102V463.343L800.681 468.234L768.071 451.929ZM771.332 390.949V448.342L823.507 444.103V386.384L771.332 390.949Z" fill="url(#paint4_linear_97_2992)"/>
<path d="M74.9477 123.386L70.1143 119.686L73.815 114.852L78.6484 118.553L74.9477 123.386ZM76.4922 135.024L71.6588 131.323L75.3595 126.49L80.1929 130.19L76.4922 135.024ZM85.4122 135.814L83.7202 132.88C84.1015 132.382 84.5225 131.787 84.9832 131.094C85.4664 130.372 85.8979 129.459 86.2778 128.356C86.6543 127.227 86.9008 125.813 87.0173 124.113C87.1339 122.414 87.0308 120.348 86.7082 117.917C86.3821 115.461 85.9368 113.493 85.3723 112.016C84.8301 110.509 84.2275 109.339 83.5642 108.505C82.9269 107.669 82.3024 107.028 81.6906 106.583C81.0789 106.138 80.5387 105.736 80.07 105.377L80.9382 102.104C81.3262 102.052 81.8993 102.108 82.6578 102.27C83.4421 102.429 84.3185 102.787 85.287 103.342C86.2521 103.872 87.2161 104.692 88.1791 105.801C89.1421 106.91 90.0092 108.387 90.7804 110.232C91.5516 112.077 92.1209 114.383 92.4881 117.15C92.8554 119.917 92.9125 122.331 92.6596 124.391C92.4067 126.451 91.9686 128.206 91.3454 129.658C90.7187 131.083 90.0173 132.242 89.241 133.134C88.4646 134.027 87.7221 134.678 87.0133 135.088C86.3338 135.52 85.8001 135.762 85.4122 135.814ZM82.3966 182.486L79.776 162.741L75.1211 163.358L74.3025 157.191L85.8891 154.074L86.586 156.35L86.7129 160.281L89.5342 181.538L82.3966 182.486ZM105.424 179.824C103.226 180.116 101.188 179.926 99.3088 179.254C97.456 178.579 95.8897 177.287 94.61 175.378C93.3269 173.443 92.4536 170.729 91.9902 167.238C91.5303 163.773 91.6691 160.952 92.4065 158.775C93.1405 156.572 94.3138 154.903 95.9263 153.768C97.5613 152.604 99.4779 151.876 101.676 151.584C103.9 151.289 105.94 151.492 107.797 152.193C109.653 152.894 111.222 154.212 112.506 156.147C113.785 158.056 114.653 160.73 115.11 164.17C115.566 167.609 115.428 170.43 114.694 172.633C113.96 174.836 112.788 176.518 111.179 177.679C109.566 178.814 107.648 179.529 105.424 179.824ZM104.528 173.074C105.925 172.889 106.9 172.207 107.454 171.028C108.034 169.846 108.142 167.884 107.778 165.143C107.415 162.402 106.799 160.536 105.93 159.546C105.088 158.552 103.968 158.148 102.572 158.334C101.201 158.515 100.228 159.211 99.6512 160.419C99.0747 161.627 98.9649 163.576 99.3218 166.265C99.6788 168.955 100.293 170.807 101.165 171.823C102.037 172.839 103.158 173.256 104.528 173.074ZM131.639 176.345C129.44 176.637 127.402 176.447 125.523 175.775C123.671 175.1 122.104 173.808 120.825 171.898C119.541 169.963 118.668 167.25 118.205 163.759C117.745 160.294 117.884 157.472 118.621 155.296C119.355 153.093 120.528 151.424 122.141 150.289C123.776 149.124 125.692 148.396 127.891 148.105C130.115 147.809 132.155 148.012 134.011 148.713C135.867 149.414 137.437 150.733 138.72 152.668C140 154.577 140.868 157.251 141.324 160.691C141.781 164.13 141.642 166.951 140.908 169.154C140.174 171.357 139.003 173.038 137.394 174.199C135.781 175.335 133.863 176.05 131.639 176.345ZM130.743 169.595C132.139 169.41 133.115 168.728 133.669 167.549C134.249 166.367 134.357 164.405 133.993 161.664C133.629 158.922 133.013 157.057 132.145 156.067C131.302 155.073 130.183 154.669 128.786 154.854C127.416 155.036 126.442 155.731 125.866 156.939C125.289 158.148 125.179 160.096 125.536 162.786C125.893 165.475 126.508 167.328 127.379 168.344C128.251 169.36 129.372 169.777 130.743 169.595ZM152.008 157.97C150.301 158.197 148.867 158.097 147.705 157.673C146.54 157.222 145.635 156.553 144.991 155.664C144.347 154.776 143.946 153.737 143.788 152.548C143.63 151.358 143.746 150.25 144.136 149.225C144.527 148.199 145.227 147.33 146.238 146.617C147.245 145.878 148.602 145.395 150.309 145.169C151.99 144.946 153.413 145.059 154.578 145.51C155.74 145.935 156.642 146.591 157.287 147.48C157.957 148.364 158.371 149.402 158.529 150.591C158.686 151.781 158.557 152.89 158.141 153.919C157.751 154.945 157.052 155.827 156.045 156.566C155.034 157.279 153.689 157.747 152.008 157.97ZM148.957 173.652L148.648 171.324L159.961 155.73L165.644 143.528L172.859 142.571L173.168 144.898L162.526 159.298L156.172 172.694L148.957 173.652ZM151.441 153.703C152.062 153.621 152.499 153.444 152.753 153.174C153.029 152.874 153.183 152.551 153.216 152.204C153.275 151.854 153.287 151.55 153.253 151.291C153.219 151.033 153.127 150.742 152.979 150.42C152.857 150.094 152.625 149.835 152.284 149.644C151.965 149.423 151.496 149.353 150.875 149.436C150.254 149.518 149.806 149.709 149.53 150.009C149.276 150.28 149.12 150.59 149.061 150.94C149.028 151.286 149.029 151.589 149.063 151.847C149.098 152.106 149.176 152.398 149.298 152.724C149.446 153.047 149.68 153.318 149.999 153.539C150.34 153.731 150.821 153.785 151.441 153.703ZM171.12 171.105C169.413 171.331 167.979 171.232 166.817 170.808C165.652 170.357 164.747 169.687 164.103 168.799C163.456 167.885 163.054 166.846 162.9 165.683C162.742 164.493 162.858 163.385 163.249 162.36C163.639 161.334 164.339 160.465 165.35 159.752C166.357 159.013 167.714 158.53 169.421 158.304C171.102 158.081 172.525 158.194 173.69 158.645C174.852 159.07 175.755 159.726 176.399 160.615C177.069 161.499 177.483 162.536 177.641 163.726C177.795 164.89 177.666 165.999 177.253 167.054C176.863 168.079 176.165 168.962 175.157 169.701C174.147 170.414 172.801 170.882 171.12 171.105ZM170.554 166.838C171.174 166.755 171.611 166.579 171.865 166.309C172.141 166.009 172.295 165.686 172.328 165.339C172.387 164.989 172.399 164.685 172.365 164.426C172.331 164.168 172.24 163.877 172.092 163.555C171.969 163.229 171.738 162.97 171.396 162.778C171.078 162.558 170.608 162.488 169.987 162.571C169.367 162.653 168.918 162.844 168.642 163.144C168.389 163.415 168.232 163.725 168.174 164.075C168.141 164.421 168.141 164.724 168.176 164.982C168.21 165.241 168.288 165.533 168.41 165.859C168.559 166.182 168.792 166.453 169.111 166.674C169.452 166.866 169.933 166.92 170.554 166.838ZM200.22 167.243C198.435 167.48 196.779 167.397 195.252 166.994C193.751 166.588 192.481 165.743 191.442 164.46C190.429 163.174 189.765 161.341 189.449 158.961C189.13 156.556 189.332 154.608 190.055 153.118C190.775 151.601 191.819 150.449 193.189 149.662C194.558 148.875 196.057 148.374 197.687 148.157C199.109 147.969 200.331 147.859 201.354 147.829C202.402 147.795 203.099 147.794 203.445 147.827L206.924 150.839L204.382 155.479L199.571 153.434C197.347 153.729 196.417 155.247 196.781 157.988C196.969 159.411 197.445 160.413 198.206 160.997C198.964 161.554 200.042 161.74 201.438 161.555C202.835 161.369 204.063 161.009 205.124 160.473C206.184 159.938 207.003 159.461 207.579 159.042L208.32 164.628C207.573 165.148 206.561 165.651 205.283 166.136C204.028 166.593 202.34 166.961 200.22 167.243ZM221.406 164.431C218.251 164.85 215.707 164.424 213.776 163.154C211.844 161.884 210.655 159.568 210.209 156.206C209.759 152.818 210.303 150.273 211.84 148.568C213.373 146.839 215.718 145.764 218.873 145.346C222.105 144.917 224.649 145.342 226.503 146.622C228.38 147.873 229.543 150.193 229.992 153.581C230.438 156.942 229.921 159.485 228.439 161.208C226.983 162.928 224.638 164.002 221.406 164.431ZM220.736 159.388C221.797 159.247 222.482 158.762 222.793 157.931C223.1 157.074 223.16 155.935 222.971 154.512C222.779 153.064 222.424 151.98 221.908 151.259C221.391 150.538 220.602 150.248 219.542 150.388C218.456 150.533 217.744 151.022 217.408 151.856C217.097 152.687 217.038 153.826 217.23 155.274C217.419 156.697 217.773 157.781 218.293 158.528C218.836 159.246 219.65 159.532 220.736 159.388ZM231.596 146.46L232.485 143.934L238.264 143.167L238.486 144.835L238.866 145.021C239.116 144.725 239.464 144.376 239.911 143.974C240.38 143.544 240.958 143.138 241.644 142.757C242.331 142.377 243.127 142.127 244.032 142.006C246.721 141.649 248.766 142.286 250.167 143.916C250.547 143.208 251.164 142.507 252.02 141.815C252.898 141.093 254.177 140.62 255.858 140.397C258.185 140.088 260.019 140.516 261.357 141.681C262.696 142.845 263.523 144.617 263.839 146.996L264.498 151.962L265.828 155.733L265.327 158.207L258.345 159.134L256.991 148.931C256.86 147.949 256.541 147.228 256.033 146.769C255.547 146.281 254.851 146.097 253.946 146.217C253.351 146.296 252.863 146.584 252.482 147.082C252.101 147.58 251.955 148.166 252.044 148.838L253.496 159.777L246.513 160.704L245.164 150.541C245.034 149.558 244.715 148.837 244.206 148.378C243.72 147.89 243.025 147.706 242.12 147.826L239.813 148.882L241.47 161.373L234.488 162.3L232.938 150.624L231.596 146.46ZM271.273 167.01L268.467 145.869L267.124 141.705L268.013 139.179L273.793 138.412L274.014 140.08L274.428 140.222C274.428 140.222 274.635 139.997 275.049 139.548C275.463 139.098 276.047 138.639 276.8 138.171C277.576 137.673 278.508 137.352 279.594 137.208C281.895 136.902 283.791 137.401 285.279 138.703C286.794 140.002 287.762 142.242 288.184 145.423C288.5 147.802 288.42 149.774 287.943 151.337C287.489 152.871 286.748 154.035 285.722 154.829C284.696 155.623 283.497 156.111 282.127 156.293C280.265 156.54 278.927 156.573 278.113 156.392C277.322 156.181 276.927 156.075 276.927 156.075L278.255 166.084L271.273 167.01ZM278.124 151.416C279.107 151.286 279.849 150.832 280.351 150.055C280.879 149.274 281.049 148.173 280.86 146.75C280.675 145.354 280.294 144.365 279.717 143.784C279.139 143.202 278.372 142.975 277.415 143.102L275.351 144.205L276.273 151.149C276.273 151.149 276.414 151.222 276.697 151.369C277.002 151.486 277.478 151.502 278.124 151.416ZM292.79 154.562L289.929 133.31L288.639 129.533L289.145 127.098L296.127 126.171L299.772 153.635L292.79 154.562ZM313.392 152.222C311.401 152.487 309.59 152.424 307.959 152.036C306.329 151.647 304.981 150.812 303.916 149.533C302.852 148.253 302.162 146.423 301.846 144.044C301.619 142.337 301.71 140.838 302.117 139.547C302.551 138.253 303.209 137.166 304.092 136.285C304.972 135.379 305.998 134.677 307.168 134.18C308.336 133.656 309.566 133.309 310.859 133.137C313.083 132.842 314.819 132.835 316.067 133.117C317.341 133.395 318.189 133.638 318.611 133.845L321.369 139.756L320.913 142.264L308.887 143.86C309.195 144.792 309.78 145.531 310.642 146.074C311.503 146.618 312.826 146.771 314.611 146.534C316.007 146.349 317.189 146.034 318.157 145.59C319.124 145.146 319.877 144.77 320.415 144.461L321.105 149.659C320.384 150.176 319.307 150.687 317.874 151.193C316.464 151.67 314.97 152.013 313.392 152.222ZM308.597 141.372L313.847 139.885L313.276 138.264C313.082 138.184 312.8 138.143 312.431 138.139C312.088 138.132 311.787 138.146 311.528 138.18C310.804 138.276 310.217 138.512 309.767 138.887C309.343 139.26 309.03 139.683 308.83 140.157C308.652 140.601 308.574 141.006 308.597 141.372ZM332.812 149.645C331.053 149.878 329.575 149.548 328.378 148.655C327.18 147.761 326.476 146.525 326.267 144.948L325.145 136.491L322.313 136.867L321.824 133.182L324.015 130.957L326.131 125.781L330.709 125.174L331.455 130.798L336.886 130.078L337.555 135.12L332.124 135.841L333.226 144.143L338.652 143.383L339.213 147.611C339.213 147.611 338.916 147.756 338.323 148.045C337.752 148.305 336.988 148.591 336.029 148.902C335.074 149.24 334.001 149.487 332.812 149.645ZM351.767 147.129C349.776 147.394 347.965 147.331 346.334 146.943C344.703 146.554 343.356 145.719 342.291 144.44C341.227 143.16 340.536 141.33 340.221 138.951C339.994 137.244 340.085 135.745 340.492 134.454C340.926 133.16 341.584 132.072 342.467 131.192C343.347 130.286 344.372 129.584 345.543 129.086C346.711 128.563 347.941 128.216 349.234 128.044C351.458 127.749 353.194 127.742 354.442 128.024C355.716 128.302 356.564 128.545 356.986 128.752L359.744 134.662L359.287 137.17L347.262 138.766C347.57 139.699 348.155 140.438 349.017 140.981C349.878 141.525 351.201 141.678 352.986 141.441C354.382 141.256 355.564 140.941 356.531 140.497C357.499 140.053 358.252 139.676 358.79 139.368L359.479 144.566C358.759 145.083 357.682 145.594 356.249 146.1C354.838 146.577 353.344 146.92 351.767 147.129ZM346.971 136.279L352.222 134.792L351.651 133.171C351.456 133.091 351.175 133.05 350.806 133.046C350.463 133.039 350.162 133.053 349.903 133.087C349.179 133.183 348.592 133.419 348.142 133.794C347.717 134.166 347.405 134.589 347.205 135.063C347.027 135.508 346.949 135.913 346.971 136.279Z" fill="white"/>
<defs>
<linearGradient id="paint0_linear_97_2992" x1="463.858" y1="-101.236" x2="615.928" y2="1009.77" gradientUnits="userSpaceOnUse">
<stop offset="0.533654" stop-color="#1C1C28"/>
<stop offset="1" stop-color="#424260"/>
</linearGradient>
<linearGradient id="paint1_linear_97_2992" x1="246.213" y1="93.2305" x2="346.03" y2="503.317" gradientUnits="userSpaceOnUse">
<stop offset="0.533654" stop-color="#1C1C28"/>
<stop offset="1" stop-color="#424260"/>
</linearGradient>
<linearGradient id="paint2_linear_97_2992" x1="221.122" y1="457.372" x2="328.217" y2="863.515" gradientUnits="userSpaceOnUse">
<stop offset="0.533654" stop-color="#1C1C28"/>
<stop offset="1" stop-color="#424260"/>
</linearGradient>
<linearGradient id="paint3_linear_97_2992" x1="692.07" y1="434.344" x2="782.07" y2="940.027" gradientUnits="userSpaceOnUse">
<stop offset="0.533654" stop-color="#1C1C28"/>
<stop offset="1" stop-color="#424260"/>
</linearGradient>
<linearGradient id="paint4_linear_97_2992" x1="687.721" y1="22.3743" x2="786.921" y2="524.476" gradientUnits="userSpaceOnUse">
<stop offset="0.533654" stop-color="#1C1C28"/>
<stop offset="1" stop-color="#424260"/>
</linearGradient>
</defs>
</svg>
